<?xml version="1.0" encoding="UTF-8" standalone="no"?>
<svg
   xmlns:dc="http://purl.org/dc/elements/1.1/"
   xmlns:cc="http://creativecommons.org/ns#"
   xmlns:rdf="http://www.w3.org/1999/02/22-rdf-syntax-ns#"
   xmlns:svg="http://www.w3.org/2000/svg"
   xmlns="http://www.w3.org/2000/svg"
   xmlns:sodipodi="http://sodipodi.sourceforge.net/DTD/sodipodi-0.dtd"
   xmlns:inkscape="http://www.inkscape.org/namespaces/inkscape"
   sodipodi:docname="pulses-panel-v2.svg"
   id="svg15182"
   version="1.1"
   viewBox="0 0 128.8000030517578 20.200000762939453"
   height="20.200000762939453mm"
   width="128.8000030517578mm"
   inkscape:version="1.0.1 (3bc2e813f5, 2020-09-07)">
  <defs
     id="defs15176">
    <clipPath
       clipPathUnits="userSpaceOnUse"
       id="clipPath15220">
      <path
         d="M 0,841.89 H 595.28 V 0 H 0 Z"
         id="path15218" />
    </clipPath>
    <clipPath
       clipPathUnits="userSpaceOnUse"
       id="clipPath15906">
      <path
         d="M 0,841.89 H 595.28 V 0 H 0 Z"
         id="path15904" />
    </clipPath>
  </defs>
  <sodipodi:namedview
     id="base"
     pagecolor="#ffffff"
     bordercolor="#666666"
     borderopacity="1.0"
     inkscape:pageopacity="0.0"
     inkscape:pageshadow="2"
     inkscape:zoom="1.4"
     inkscape:cx="327.43975"
     inkscape:cy="63.546416"
     inkscape:document-units="mm"
     inkscape:current-layer="g17612"
     inkscape:document-rotation="0"
     showgrid="false"
     showguides="true"
     inkscape:guide-bbox="true"
     fit-margin-top="0"
     fit-margin-left="0"
     fit-margin-right="0"
     fit-margin-bottom="0"
     inkscape:window-width="1920"
     inkscape:window-height="1019"
     inkscape:window-x="1600"
     inkscape:window-y="29"
     inkscape:window-maximized="1" />
  <metadata
     id="metadata15179">
    <rdf:RDF>
      <cc:Work
         rdf:about="">
        <dc:format>image/svg+xml</dc:format>
        <dc:type
           rdf:resource="http://purl.org/dc/dcmitype/StillImage" />
        <dc:title></dc:title>
      </cc:Work>
    </rdf:RDF>
  </metadata>
  <g
     id="g16779"
     style="display:inline"
     transform="rotate(90,64.426349,64.42635)" />
  <g
     id="g15908"
     transform="matrix(0,0.35277777,0.35277777,0,17.276549,8.28272)"
     style="display:inline;fill:none;stroke:#ff0000;stroke-width:0.99975;stroke-miterlimit:4;stroke-dasharray:none;stroke-opacity:1" />
  <g
     id="g15912"
     transform="matrix(0,0.35277777,0.35277777,0,32.494566,8.28272)"
     style="display:inline;fill:none;stroke:#ff0000;stroke-width:0.99975;stroke-miterlimit:4;stroke-dasharray:none;stroke-opacity:1" />
  <g
     id="g15916"
     transform="matrix(0,0.35277777,0.35277777,0,47.824381,8.28272)"
     style="display:inline;fill:none;stroke:#ff0000;stroke-width:0.99975;stroke-miterlimit:4;stroke-dasharray:none;stroke-opacity:1" />
  <g
     id="g15920"
     transform="matrix(0,0.35277777,0.35277777,0,63.041026,8.28272)"
     style="display:inline;fill:none;stroke:#ff0000;stroke-width:0.99975;stroke-miterlimit:4;stroke-dasharray:none;stroke-opacity:1" />
  <g
     id="g15924"
     transform="matrix(0,0.35277777,0.35277777,0,78.269208,8.28272)"
     style="display:inline;fill:none;stroke:#ff0000;stroke-width:0.99975;stroke-miterlimit:4;stroke-dasharray:none;stroke-opacity:1" />
  <g
     id="g15928"
     transform="matrix(0,0.35277777,0.35277777,0,93.479328,8.28272)"
     style="display:inline;fill:none;stroke:#ff0000;stroke-width:0.99975;stroke-miterlimit:4;stroke-dasharray:none;stroke-opacity:1" />
  <g
     id="g15932"
     transform="matrix(0,0.35277777,0.35277777,0,108.7237,8.28272)"
     style="display:inline;fill:none;stroke:#ff0000;stroke-width:0.99975;stroke-miterlimit:4;stroke-dasharray:none;stroke-opacity:1" />
  <g
     id="g15936"
     transform="matrix(0,0.35277777,0.35277777,0,25.620589,17.756038)"
     style="display:inline;fill:none;stroke:#ff0000;stroke-width:0.99975;stroke-miterlimit:4;stroke-dasharray:none;stroke-opacity:1" />
  <g
     id="g15940"
     transform="matrix(0,0.35277777,0.35277777,0,41.470074,17.756038)"
     style="display:inline;fill:none;stroke:#ff0000;stroke-width:0.99975;stroke-miterlimit:4;stroke-dasharray:none;stroke-opacity:1" />
  <g
     id="g15944"
     transform="matrix(0,0.35277777,0.35277777,0,86.566541,17.751381)"
     style="display:inline;fill:none;stroke:#ff0000;stroke-width:0.99975;stroke-miterlimit:4;stroke-dasharray:none;stroke-opacity:1" />
  <g
     id="g15948"
     transform="matrix(0,0.35277777,0.35277777,0,101.81162,17.751381)"
     style="display:inline;fill:none;stroke:#ff0000;stroke-width:0.99975;stroke-miterlimit:4;stroke-dasharray:none;stroke-opacity:1" />
  <g
     id="g15952"
     transform="matrix(0,0.35277777,0.35277777,0,115.48434,4.332244)"
     style="display:inline;fill:none;stroke:#ff0000;stroke-width:0.99975;stroke-miterlimit:4;stroke-dasharray:none;stroke-opacity:1" />
  <g
     id="g15956"
     transform="matrix(0,0.35277777,0.35277777,0,108.7237,13.757478)"
     style="display:inline;fill:none;stroke:#ff0000;stroke-width:0.99975;stroke-miterlimit:4;stroke-dasharray:none;stroke-opacity:1" />
  <g
     id="g15960"
     transform="matrix(0,0.35277777,0.35277777,0,100.55037,4.332244)"
     style="display:inline;fill:none;stroke:#ff0000;stroke-width:0.99975;stroke-miterlimit:4;stroke-dasharray:none;stroke-opacity:1" />
  <g
     id="g15964"
     transform="matrix(0,0.35277777,0.35277777,0,93.479328,13.757478)"
     style="display:inline;fill:none;stroke:#ff0000;stroke-width:0.99975;stroke-miterlimit:4;stroke-dasharray:none;stroke-opacity:1" />
  <g
     id="g15968"
     transform="matrix(0,0.35277777,0.35277777,0,85.295305,4.332244)"
     style="display:inline;fill:none;stroke:#ff0000;stroke-width:0.99975;stroke-miterlimit:4;stroke-dasharray:none;stroke-opacity:1" />
  <g
     id="g15972"
     transform="matrix(0,0.35277777,0.35277777,0,70.067124,4.332244)"
     style="display:inline;fill:none;stroke:#ff0000;stroke-width:0.99975;stroke-miterlimit:4;stroke-dasharray:none;stroke-opacity:1" />
  <g
     id="g15976"
     transform="matrix(0,0.35277777,0.35277777,0,54.80931,4.332244)"
     style="display:inline;fill:none;stroke:#ff0000;stroke-width:0.99975;stroke-miterlimit:4;stroke-dasharray:none;stroke-opacity:1" />
  <g
     id="g15980"
     transform="matrix(0,0.35277777,0.35277777,0,49.047391,13.775928)"
     style="display:inline;fill:none;stroke:#ff0000;stroke-width:0.99975;stroke-miterlimit:4;stroke-dasharray:none;stroke-opacity:1" />
  <g
     id="g15984"
     transform="matrix(0,0.35277777,0.35277777,0,32.494566,13.775928)"
     style="display:inline;fill:none;stroke:#ff0000;stroke-width:0.99975;stroke-miterlimit:4;stroke-dasharray:none;stroke-opacity:1" />
  <g
     id="g15988"
     transform="matrix(0,0.35277777,0.35277777,0,39.570125,4.332244)"
     style="display:inline;fill:none;stroke:#ff0000;stroke-width:0.99975;stroke-miterlimit:4;stroke-dasharray:none;stroke-opacity:1" />
  <g
     inkscape:label="[fixed] BG"
     inkscape:groupmode="layer"
     sodipodi:insensitive="true"
     id="g17600"
     style="display:inline">
    <rect
       x="0"
       y="0"
       width="128.8"
       height="20.200001"
       style="fill:#ffffff;fill-opacity:1;stroke:none"
       id="rect17598" />
  </g>
  <g
     inkscape:label="Edge.Cuts"
     inkscape:groupmode="layer"
     id="g17602">
    <path
       d="M 128.67635,0.17634501 V 20.176375 H 0.17634501 V 0.17634501 Z"
       style="display:inline;fill:none;stroke:#ff0000;stroke-width:0.35269;stroke-linecap:butt;stroke-linejoin:miter;stroke-miterlimit:4;stroke-dasharray:none;stroke-opacity:1"
       id="path15898" />
    <g
       id="g15996"
       transform="matrix(0,0.35277777,0.35277777,0,3.416259,4.5718521)"
       style="display:inline;fill:none;stroke:#ff0000;stroke-width:0.99975;stroke-miterlimit:4;stroke-dasharray:none;stroke-opacity:1">
      <path
         d="m 0,0 c 0.23,2.225 2.352,3.928 4.89,3.928 h 7.162 c 2.538,0 4.655,-1.703 4.885,-3.928 0.048,-0.451 0.048,-0.906 0,-1.357 -0.23,-2.225 -2.347,-3.928 -4.885,-3.928 H 4.89 C 2.352,-5.285 0.23,-3.582 0,-1.357 -0.045,-0.906 -0.045,-0.451 0,0"
         style="fill:none;stroke:#ff0000;stroke-width:0.99975;stroke-linecap:butt;stroke-linejoin:miter;stroke-miterlimit:4;stroke-dasharray:none;stroke-opacity:1"
         id="path15998" />
    </g>
    <g
       id="g16000"
       transform="matrix(0,0.35277777,0.35277777,0,125.91661,4.5716751)"
       style="display:inline;fill:none;stroke:#ff0000;stroke-width:0.99975;stroke-miterlimit:4;stroke-dasharray:none;stroke-opacity:1">
      <path
         d="m 0,0 c 0.23,2.225 2.352,3.928 4.89,3.928 h 7.162 c 2.538,0 4.655,-1.703 4.885,-3.928 0.048,-0.451 0.048,-0.906 0,-1.357 -0.23,-2.225 -2.347,-3.928 -4.885,-3.928 H 4.89 C 2.352,-5.285 0.23,-3.582 0,-1.357 -0.045,-0.906 -0.045,-0.451 0,0"
         style="fill:none;stroke:#ff0000;stroke-width:0.99975;stroke-linecap:butt;stroke-linejoin:miter;stroke-miterlimit:4;stroke-dasharray:none;stroke-opacity:1"
         id="path16002" />
    </g>
  </g>
  <g
     inkscape:label="B.Cu"
     inkscape:groupmode="layer"
     id="g17604" />
  <g
     inkscape:label="B.SilkS"
     inkscape:groupmode="layer"
     id="g17606" />
  <g
     inkscape:label="F.Cu"
     inkscape:groupmode="layer"
     id="g17608" />
  <g
     inkscape:label="F.Mask"
     inkscape:groupmode="layer"
     id="g17610" />
  <g
     inkscape:label="F.SilkS"
     inkscape:groupmode="layer"
     id="g17612">
    <g
       id="g16773"
       transform="rotate(90,64.426349,64.42635)">
      <g
         id="g17244">
        <g
           id="g16456"
           style="display:inline"
           transform="translate(-18.878594,-18.878766)">
          <path
             d="m 27.633083,34.023828 h -2.801056 v -3.55353 h 2.801056 z"
             style="fill:#231f20;fill-opacity:1;fill-rule:nonzero;stroke:none;stroke-width:0.352778"
             id="path15212" />
          <g
             id="g15222"
             transform="matrix(0.35277777,0,0,-0.35277777,26.569634,33.315451)">
            <path
               d="m 0,0 h -0.792 v 4.078 h -1.576 v 0.64 c 0.189,-0.01 0.388,-0.019 0.495,-0.019 0.802,0 1.171,0.288 1.288,0.999 H 0 Z"
               style="fill:#ffffff;fill-opacity:1;fill-rule:nonzero;stroke:none"
               id="path15224" />
          </g>
          <g
             id="g15226"
             transform="matrix(0.35277777,0,0,-0.35277777,24.161327,39.007766)"
             style="stroke-width:1.22475;stroke-miterlimit:4;stroke-dasharray:none">
            <path
               d="m 0,0 -6.953,11.9 v 7.497"
               style="fill:none;stroke:#231f20;stroke-width:1.22475;stroke-linecap:butt;stroke-linejoin:miter;stroke-miterlimit:4;stroke-dasharray:none;stroke-opacity:1"
               id="path15228" />
          </g>
          <path
             d="m 37.454416,40.784461 h -4.616803 v -3.55353 h 4.616803 z"
             style="fill:#231f20;fill-opacity:1;fill-rule:nonzero;stroke:none;stroke-width:0.352778"
             id="path15230" />
          <g
             id="g15232"
             transform="matrix(0.35277777,0,0,-0.35277777,34.071312,40.095558)">
            <path
               d="m 0,0 h -0.792 v 4.078 h -1.576 v 0.64 c 0.189,-0.01 0.388,-0.019 0.495,-0.019 0.802,0 1.171,0.288 1.288,0.999 H 0 Z"
               style="fill:#ffffff;fill-opacity:1;fill-rule:nonzero;stroke:none"
               id="path15234" />
          </g>
          <g
             id="g15236"
             transform="matrix(0.35277777,0,0,-0.35277777,34.808407,38.970761)">
            <path
               d="M 0,0 V 1.164 H 0.282 V 0 H 1.511 V -0.27 H 0.282 V -1.433 H 0 V -0.27 H -1.229 V 0 Z"
               style="fill:#ffffff;fill-opacity:1;fill-rule:nonzero;stroke:none"
               id="path15238" />
          </g>
          <g
             id="g15240"
             transform="matrix(0.35277777,0,0,-0.35277777,36.815676,40.095558)">
            <path
               d="m 0,0 h -3.763 v 0.685 c 0.774,0.557 1.45,1.125 1.999,1.673 0.648,0.649 0.909,1.153 0.909,1.72 0,0.676 -0.405,1.09 -1.062,1.09 -0.711,0 -1.09,-0.379 -1.09,-1.107 0,-0.226 0.028,-0.388 0.108,-0.649 H -3.682 C -3.763,3.7 -3.79,3.862 -3.79,4.123 c 0,1.018 0.738,1.702 1.836,1.702 1.117,0 1.882,-0.721 1.882,-1.764 0,-0.73 -0.342,-1.396 -1.089,-2.134 C -1.386,1.701 -1.729,1.404 -2.206,1.026 L -2.358,0.9 -2.512,0.783 -2.665,0.657 H 0 Z"
               style="fill:#ffffff;fill-opacity:1;fill-rule:nonzero;stroke:none"
               id="path15242" />
          </g>
          <g
             id="g15244"
             transform="matrix(0.35277777,0,0,-0.35277777,33.629987,45.919846)"
             style="stroke-width:1.22475;stroke-miterlimit:4;stroke-dasharray:none">
            <path
               d="m 0,0 -7.272,12.02 v 7.573"
               style="fill:none;stroke:#231f20;stroke-width:1.22475;stroke-linecap:butt;stroke-linejoin:miter;stroke-miterlimit:4;stroke-dasharray:none;stroke-opacity:1"
               id="path15246" />
          </g>
          <g
             id="g15248"
             transform="matrix(0.35277777,0,0,-0.35277777,24.161327,54.252142)"
             style="stroke-width:1.22475;stroke-miterlimit:4;stroke-dasharray:none">
            <path
               d="m 0,0 -7.141,12.297 v 7.747"
               style="fill:none;stroke:#231f20;stroke-width:1.22475;stroke-linecap:butt;stroke-linejoin:miter;stroke-miterlimit:4;stroke-dasharray:none;stroke-opacity:1"
               id="path15250" />
          </g>
          <g
             id="g15252"
             transform="matrix(0.35277777,0,0,-0.35277777,24.161327,84.690441)"
             style="stroke-width:1.22475;stroke-miterlimit:4;stroke-dasharray:none">
            <path
               d="m 0,0 -7.088,12.218 v 7.699"
               style="fill:none;stroke:#231f20;stroke-width:1.22475;stroke-linecap:butt;stroke-linejoin:miter;stroke-miterlimit:4;stroke-dasharray:none;stroke-opacity:1"
               id="path15254" />
          </g>
          <g
             id="g15256"
             transform="matrix(0.35277777,0,0,-0.35277777,24.161327,99.977893)"
             style="stroke-width:1.22475;stroke-miterlimit:4;stroke-dasharray:none">
            <path
               d="M 0,0 -7.088,12.067 V 19.67"
               style="fill:none;stroke:#231f20;stroke-width:1.22475;stroke-linecap:butt;stroke-linejoin:miter;stroke-miterlimit:4;stroke-dasharray:none;stroke-opacity:1"
               id="path15258" />
          </g>
          <g
             id="g15260"
             transform="matrix(0.35277777,0,0,-0.35277777,33.634644,106.17355)"
             style="stroke-width:1.22475;stroke-miterlimit:4;stroke-dasharray:none">
            <path
               d="M 0,0 -7.172,13.024 V 21.23"
               style="fill:none;stroke:#231f20;stroke-width:1.22475;stroke-linecap:butt;stroke-linejoin:miter;stroke-miterlimit:4;stroke-dasharray:none;stroke-opacity:1"
               id="path15262" />
          </g>
          <path
             d="m 27.606977,48.957617 h -2.801055 v -3.553531 h 2.801055 z"
             style="fill:#231f20;fill-opacity:1;fill-rule:nonzero;stroke:none;stroke-width:0.352778"
             id="path15264" />
          <g
             id="g15266"
             transform="matrix(0.35277777,0,0,-0.35277777,26.902585,48.249238)">
            <path
               d="m 0,0 h -3.763 v 0.685 c 0.774,0.557 1.45,1.125 1.999,1.673 0.648,0.649 0.909,1.153 0.909,1.72 0,0.676 -0.405,1.09 -1.062,1.09 -0.711,0 -1.09,-0.379 -1.09,-1.107 0,-0.226 0.028,-0.388 0.109,-0.649 H -3.682 C -3.763,3.7 -3.79,3.862 -3.79,4.123 c 0,1.018 0.738,1.702 1.836,1.702 1.117,0 1.882,-0.721 1.882,-1.764 0,-0.73 -0.342,-1.396 -1.089,-2.134 C -1.386,1.701 -1.729,1.404 -2.206,1.026 L -2.358,0.9 -2.512,0.783 -2.665,0.657 H 0 Z"
               style="fill:#ffffff;fill-opacity:1;fill-rule:nonzero;stroke:none"
               id="path15268" />
          </g>
          <path
             d="m 37.433602,56.029047 h -4.616803 v -3.553531 h 4.616803 z"
             style="fill:#231f20;fill-opacity:1;fill-rule:nonzero;stroke:none;stroke-width:0.352778"
             id="path15270" />
          <g
             id="g15272"
             transform="matrix(0.35277777,0,0,-0.35277777,34.250453,55.339931)">
            <path
               d="m 0,0 h -3.763 v 0.685 c 0.774,0.557 1.45,1.125 1.999,1.673 0.648,0.649 0.909,1.153 0.909,1.72 0,0.676 -0.405,1.09 -1.062,1.09 -0.711,0 -1.09,-0.379 -1.09,-1.107 0,-0.226 0.028,-0.388 0.108,-0.649 H -3.682 C -3.763,3.7 -3.79,3.862 -3.79,4.123 c 0,1.018 0.738,1.702 1.836,1.702 1.117,0 1.882,-0.721 1.882,-1.764 0,-0.73 -0.342,-1.396 -1.089,-2.134 C -1.386,1.701 -1.729,1.404 -2.206,1.026 L -2.358,0.9 -2.512,0.783 -2.665,0.657 H 0 Z"
               style="fill:#ffffff;fill-opacity:1;fill-rule:nonzero;stroke:none"
               id="path15274" />
          </g>
          <g
             id="g15276"
             transform="matrix(0.35277777,0,0,-0.35277777,34.946202,54.215135)">
            <path
               d="M 0,0 V 1.164 H 0.282 V 0 H 1.511 V -0.27 H 0.282 V -1.433 H 0 V -0.27 H -1.229 V 0 Z"
               style="fill:#ffffff;fill-opacity:1;fill-rule:nonzero;stroke:none"
               id="path15278" />
          </g>
          <g
             id="g15280"
             transform="matrix(0.35277777,0,0,-0.35277777,36.43584,53.745552)">
            <path
               d="M 0,0 -1.792,-2.476 H 0 Z m -2.593,-3.133 v 0.675 L 0.162,1.26 H 0.765 V -2.476 H 1.611 V -3.133 H 0.765 V -4.52 H 0 v 1.387 z"
               style="fill:#ffffff;fill-opacity:1;fill-rule:nonzero;stroke:none"
               id="path15282" />
          </g>
          <g
             id="g15284"
             transform="matrix(0.35277777,0,0,-0.35277777,33.558338,61.164926)"
             style="stroke-width:1.22475;stroke-miterlimit:4;stroke-dasharray:none">
            <path
               d="m 0,0 -7.115,12.021 v 7.574"
               style="fill:none;stroke:#231f20;stroke-width:1.22475;stroke-linecap:butt;stroke-linejoin:miter;stroke-miterlimit:4;stroke-dasharray:none;stroke-opacity:1"
               id="path15286" />
          </g>
          <path
             d="m 27.565702,64.212786 h -2.801055 v -3.553531 h 2.801055 z"
             style="fill:#231f20;fill-opacity:1;fill-rule:nonzero;stroke:none;stroke-width:0.352778"
             id="path15288" />
          <g
             id="g15290"
             transform="matrix(0.35277777,0,0,-0.35277777,25.978449,62.344862)">
            <path
               d="m 0,0 c 0.18,-0.019 0.36,-0.027 0.459,-0.027 0.774,0 1.207,0.342 1.207,0.945 0,0.576 -0.442,0.964 -1.099,0.964 -0.774,0 -1.125,-0.414 -1.152,-1.369 h -0.784 c 0.055,1.35 0.694,2.026 1.918,2.026 1.143,0 1.9,-0.648 1.9,-1.63 0,-0.54 -0.18,-0.883 -0.649,-1.224 0.595,-0.37 0.828,-0.756 0.828,-1.396 0,-1.035 -0.783,-1.692 -2.007,-1.692 -1.323,0 -2.161,0.72 -2.161,1.845 v 0.118 h 0.792 c 0.037,-0.91 0.442,-1.306 1.351,-1.306 0.774,0 1.215,0.388 1.215,1.071 0,0.64 -0.378,0.964 -1.143,0.964 -0.198,0 -0.261,0 -0.675,-0.018 z"
               style="fill:#ffffff;fill-opacity:1;fill-rule:nonzero;stroke:none"
               id="path15292" />
          </g>
          <path
             d="m 27.565702,79.441144 h -2.801055 v -3.553531 h 2.801055 z"
             style="fill:#231f20;fill-opacity:1;fill-rule:nonzero;stroke:none;stroke-width:0.352778"
             id="path15294" />
          <g
             id="g15296"
             transform="matrix(0.35277777,0,0,-0.35277777,26.343608,77.138105)">
            <path
               d="M 0,0 -1.792,-2.476 H 0 Z m -2.593,-3.133 v 0.675 L 0.162,1.26 H 0.765 V -2.476 H 1.611 V -3.133 H 0.765 V -4.52 H 0 v 1.387 z"
               style="fill:#ffffff;fill-opacity:1;fill-rule:nonzero;stroke:none"
               id="path15298" />
          </g>
          <path
             d="m 27.60733,94.815553 h -2.801056 v -3.55353 h 2.801056 z"
             style="fill:#231f20;fill-opacity:1;fill-rule:nonzero;stroke:none;stroke-width:0.352778"
             id="path15300" />
          <g
             id="g15302"
             transform="matrix(0.35277777,0,0,-0.35277777,26.820247,92.096513)">
            <path
               d="m 0,0 v -0.657 h -2.692 l -0.126,-1.575 c 0.432,0.324 0.783,0.441 1.306,0.441 1.062,0 1.845,-0.847 1.845,-1.98 0,-1.216 -0.837,-2.044 -2.062,-2.044 -1.125,0 -1.899,0.693 -2.052,1.818 l 0.801,0.055 c 0.144,-0.82 0.54,-1.216 1.251,-1.216 0.766,0 1.279,0.558 1.279,1.395 0,0.811 -0.459,1.315 -1.197,1.315 -0.55,0 -0.928,-0.235 -1.171,-0.747 L -3.538,-3.169 -3.277,0 Z"
               style="fill:#ffffff;fill-opacity:1;fill-rule:nonzero;stroke:none"
               id="path15304" />
          </g>
          <path
             d="m 37.433602,100.4607 h -4.616803 v -3.553527 h 4.616803 z"
             style="fill:#231f20;fill-opacity:1;fill-rule:nonzero;stroke:none;stroke-width:0.352778"
             id="path15306" />
          <g
             id="g15308"
             transform="matrix(0.35277777,0,0,-0.35277777,34.092656,98.177273)">
            <path
               d="M 0,0 -1.792,-2.476 H 0 Z m -2.593,-3.133 v 0.675 L 0.162,1.26 H 0.765 V -2.476 H 1.611 V -3.133 H 0.765 V -4.52 H 0 v 1.387 z"
               style="fill:#ffffff;fill-opacity:1;fill-rule:nonzero;stroke:none"
               id="path15310" />
          </g>
          <g
             id="g15312"
             transform="matrix(0.35277777,0,0,-0.35277777,35.179069,98.646863)">
            <path
               d="M 0,0 V 1.164 H 0.282 V 0 H 1.511 V -0.27 H 0.282 V -1.433 H 0 V -0.27 H -1.229 V 0 Z"
               style="fill:#ffffff;fill-opacity:1;fill-rule:nonzero;stroke:none"
               id="path15314" />
          </g>
          <g
             id="g15316"
             transform="matrix(0.35277777,0,0,-0.35277777,37.076309,97.761453)">
            <path
               d="m 0,0 v -0.729 c 0,-0.243 -0.045,-0.396 -0.189,-0.639 l -0.45,-0.747 c -0.369,-0.63 -0.738,-1.387 -0.972,-1.989 -0.217,-0.568 -0.316,-0.964 -0.415,-1.594 h -0.918 c 0.099,0.468 0.171,0.756 0.288,1.098 0.234,0.684 0.747,1.702 1.242,2.485 l 0.55,0.864 c 0.18,0.279 0.216,0.369 0.216,0.495 0,0.027 0,0.064 -0.009,0.099 h -2.251 v -1.125 h -0.63 V 0 Z"
               style="fill:#ffffff;fill-opacity:1;fill-rule:nonzero;stroke:none"
               id="path15318" />
          </g>
          <g
             id="g15320"
             transform="matrix(0.35277777,0,0,-0.35277777,33.634644,122.11088)"
             style="stroke-width:1.22475;stroke-miterlimit:4;stroke-dasharray:none">
            <path
               d="m 0,0 -7.216,12.028 v 7.578"
               style="fill:none;stroke:#231f20;stroke-width:1.22475;stroke-linecap:butt;stroke-linejoin:miter;stroke-miterlimit:4;stroke-dasharray:none;stroke-opacity:1"
               id="path15322" />
          </g>
          <g
             id="g15324"
             transform="matrix(0.35277777,0,0,-0.35277777,24.161327,115.19418)"
             style="stroke-width:1.22475;stroke-miterlimit:4;stroke-dasharray:none">
            <path
               d="m 0,0 -7.088,12.23 v 7.706"
               style="fill:none;stroke:#231f20;stroke-width:1.22475;stroke-linecap:butt;stroke-linejoin:miter;stroke-miterlimit:4;stroke-dasharray:none;stroke-opacity:1"
               id="path15326" />
          </g>
          <path
             d="m 27.581577,109.93807 h -2.801055 v -3.55353 h 2.801055 z"
             style="fill:#231f20;fill-opacity:1;fill-rule:nonzero;stroke:none;stroke-width:0.352778"
             id="path15328" />
          <g
             id="g15330"
             transform="matrix(0.35277777,0,0,-0.35277777,25.822556,108.56873)">
            <path
               d="m 0,0 c 0,-0.738 0.522,-1.333 1.179,-1.333 0.685,0 1.144,0.531 1.144,1.342 0,0.756 -0.469,1.287 -1.144,1.287 C 0.504,1.296 0,0.747 0,0 M 2.206,2.367 C 2.053,3.033 1.773,3.295 1.207,3.295 c -0.838,0 -1.198,-0.55 -1.333,-2.026 0.495,0.522 0.837,0.684 1.404,0.684 1.081,0 1.828,-0.774 1.828,-1.899 0,-1.171 -0.819,-2.044 -1.918,-2.044 -1.296,0 -2.061,1.09 -2.061,2.926 0,1.89 0.774,3.016 2.061,3.016 0.919,0 1.585,-0.55 1.783,-1.486 z"
               style="fill:#ffffff;fill-opacity:1;fill-rule:nonzero;stroke:none"
               id="path15332" />
          </g>
          <path
             d="m 37.600466,117.57113 h -4.7625 v -5.33471 h 4.7625 z"
             style="fill:#231f20;fill-opacity:1;fill-rule:nonzero;stroke:none;stroke-width:0.352778"
             id="path15334" />
          <g
             id="g15336"
             transform="matrix(0.35277777,0,0,-0.35277777,34.364647,114.70117)">
            <path
               d="m 0,0 h -0.792 v 4.078 h -1.576 v 0.64 c 0.189,-0.01 0.388,-0.019 0.495,-0.019 0.802,0 1.171,0.288 1.288,0.999 H 0 Z"
               style="fill:#ffffff;fill-opacity:1;fill-rule:nonzero;stroke:none"
               id="path15338" />
          </g>
          <g
             id="g15340"
             transform="matrix(0.35277777,0,0,-0.35277777,35.118779,113.62287)">
            <path
               d="M 0,0 V 1.358 H 0.329 V 0 H 1.765 V -0.315 H 0.329 V -1.674 H 0 v 1.359 H -1.436 V 0 Z"
               style="fill:#ffffff;fill-opacity:1;fill-rule:nonzero;stroke:none"
               id="path15342" />
          </g>
          <g
             id="g15344"
             transform="matrix(0.35277777,0,0,-0.35277777,37.151239,114.70117)">
            <path
               d="m 0,0 h -3.763 v 0.685 c 0.774,0.557 1.45,1.125 1.999,1.673 0.648,0.649 0.909,1.153 0.909,1.72 0,0.676 -0.405,1.09 -1.062,1.09 -0.711,0 -1.09,-0.379 -1.09,-1.107 0,-0.226 0.028,-0.388 0.108,-0.649 H -3.682 C -3.763,3.7 -3.79,3.862 -3.79,4.123 c 0,1.018 0.738,1.702 1.836,1.702 1.117,0 1.882,-0.721 1.882,-1.764 0,-0.73 -0.342,-1.396 -1.089,-2.134 C -1.386,1.701 -1.729,1.404 -2.206,1.026 L -2.358,0.9 -2.512,0.783 -2.665,0.657 H 0 Z"
               style="fill:#ffffff;fill-opacity:1;fill-rule:nonzero;stroke:none"
               id="path15346" />
          </g>
          <g
             id="g15348"
             transform="matrix(0.35277777,0,0,-0.35277777,34.001216,115.39985)">
            <path
               d="M 0,0 -1.792,-2.476 H 0 Z m -2.593,-3.133 v 0.675 L 0.162,1.26 H 0.765 V -2.476 H 1.611 V -3.133 H 0.765 V -4.52 H 0 v 1.387 z"
               style="fill:#ffffff;fill-opacity:1;fill-rule:nonzero;stroke:none"
               id="path15350" />
          </g>
          <g
             id="g15352"
             transform="matrix(0.35277777,0,0,-0.35277777,35.041097,115.91593)">
            <path
               d="M 0,0 V 1.358 H 0.329 V 0 H 1.765 V -0.315 H 0.329 V -1.674 H 0 v 1.359 H -1.436 V 0 Z"
               style="fill:#ffffff;fill-opacity:1;fill-rule:nonzero;stroke:none"
               id="path15354" />
          </g>
          <g
             id="g15356"
             transform="matrix(0.35277777,0,0,-0.35277777,36.949521,114.98403)">
            <path
               d="m 0,0 v -0.729 c 0,-0.243 -0.045,-0.396 -0.189,-0.639 l -0.45,-0.747 c -0.369,-0.63 -0.738,-1.387 -0.972,-1.989 -0.217,-0.568 -0.316,-0.964 -0.415,-1.594 h -0.918 c 0.099,0.468 0.171,0.756 0.288,1.098 0.234,0.684 0.747,1.702 1.242,2.485 l 0.55,0.864 c 0.18,0.279 0.216,0.369 0.216,0.495 0,0.027 0,0.064 -0.009,0.099 h -2.251 v -1.125 h -0.63 V 0 Z"
               style="fill:#ffffff;fill-opacity:1;fill-rule:nonzero;stroke:none"
               id="path15358" />
          </g>
          <g
             id="g15360"
             transform="matrix(0.35277777,0,0,-0.35277777,24.161327,130.45492)"
             style="stroke-width:1.22475;stroke-miterlimit:4;stroke-dasharray:none">
            <path
               d="m 0,0 -7.088,12.005 v 7.564"
               style="fill:none;stroke:#231f20;stroke-width:1.22475;stroke-linecap:butt;stroke-linejoin:miter;stroke-miterlimit:4;stroke-dasharray:none;stroke-opacity:1"
               id="path15362" />
          </g>
          <path
             d="m 27.581577,125.16678 h -2.801055 v -3.55317 h 2.801055 z"
             style="fill:#231f20;fill-opacity:1;fill-rule:nonzero;stroke:none;stroke-width:0.352778"
             id="path15364" />
          <g
             id="g15366"
             transform="matrix(0.35277777,0,0,-0.35277777,26.851608,122.44747)">
            <path
               d="m 0,0 v -0.729 c 0,-0.243 -0.045,-0.396 -0.189,-0.639 l -0.45,-0.747 c -0.369,-0.63 -0.738,-1.387 -0.972,-1.989 -0.217,-0.568 -0.316,-0.964 -0.415,-1.594 h -0.918 c 0.099,0.468 0.171,0.756 0.288,1.098 0.234,0.684 0.747,1.702 1.242,2.485 l 0.55,0.864 c 0.18,0.279 0.216,0.369 0.216,0.495 0,0.027 0,0.064 -0.009,0.099 h -2.251 v -1.125 h -0.63 V 0 Z"
               style="fill:#ffffff;fill-opacity:1;fill-rule:nonzero;stroke:none"
               id="path15368" />
          </g>
          <g
             id="g15370"
             transform="matrix(0.35277777,0,0,-0.35277777,24.077436,69.46226)">
            <path
               d="m 0,0 -6.85,12.218 v 7.699"
               style="fill:none;stroke:#231f20;stroke-width:1.10775;stroke-linecap:butt;stroke-linejoin:miter;stroke-miterlimit:4;stroke-dasharray:none;stroke-opacity:1"
               id="path15372" />
          </g>
        </g>
      </g>
    </g>
  </g>
  <g
     inkscape:label="Drill"
     inkscape:groupmode="layer"
     id="g17614">
    <g
       id="g15992"
       transform="matrix(0,0.35277777,0.35277777,0,24.341419,4.3322441)"
       style="display:inline;fill:none;stroke:#ff0000;stroke-width:0.99975;stroke-miterlimit:4;stroke-dasharray:none;stroke-opacity:1">
      <g
         id="g16824">
        <path
           d="m 0,0 c 0,-4.696 -3.807,-8.504 -8.504,-8.504 -4.697,0 -8.504,3.808 -8.504,8.504 0,4.696 3.807,8.504 8.504,8.504 C -3.807,8.504 0,4.696 0,0 Z"
           style="display:inline;fill:none;stroke:#ff0000;stroke-width:0.99975;stroke-linecap:butt;stroke-linejoin:miter;stroke-miterlimit:4;stroke-dasharray:none;stroke-opacity:1"
           id="path15910"
           transform="translate(11.1982,-20.026401)" />
        <path
           d="m 0,0 c 0,-4.696 -3.807,-8.504 -8.504,-8.504 -4.697,0 -8.504,3.808 -8.504,8.504 0,4.696 3.807,8.504 8.504,8.504 C -3.807,8.504 0,4.696 0,0 Z"
           style="display:inline;fill:none;stroke:#ff0000;stroke-width:0.99975;stroke-linecap:butt;stroke-linejoin:miter;stroke-miterlimit:4;stroke-dasharray:none;stroke-opacity:1"
           id="path15914"
           transform="translate(11.1982,23.111283)" />
        <path
           d="m 0,0 c 0,-4.696 -3.807,-8.504 -8.504,-8.504 -4.697,0 -8.504,3.808 -8.504,8.504 0,4.696 3.807,8.504 8.504,8.504 C -3.807,8.504 0,4.696 0,0 Z"
           style="display:inline;fill:none;stroke:#ff0000;stroke-width:0.99975;stroke-linecap:butt;stroke-linejoin:miter;stroke-miterlimit:4;stroke-dasharray:none;stroke-opacity:1"
           id="path15918"
           transform="translate(11.1982,66.565879)" />
        <path
           d="m 0,0 c 0,-4.696 -3.807,-8.504 -8.504,-8.504 -4.697,0 -8.504,3.808 -8.504,8.504 0,4.696 3.807,8.504 8.504,8.504 C -3.807,8.504 0,4.696 0,0 Z"
           style="display:inline;fill:none;stroke:#ff0000;stroke-width:0.99975;stroke-linecap:butt;stroke-linejoin:miter;stroke-miterlimit:4;stroke-dasharray:none;stroke-opacity:1"
           id="path15922"
           transform="translate(11.1982,109.69968)" />
        <path
           d="m 0,0 c 0,-4.696 -3.807,-8.504 -8.504,-8.504 -4.697,0 -8.504,3.808 -8.504,8.504 0,4.696 3.807,8.504 8.504,8.504 C -3.807,8.504 0,4.696 0,0 Z"
           style="display:inline;fill:none;stroke:#ff0000;stroke-width:0.99975;stroke-linecap:butt;stroke-linejoin:miter;stroke-miterlimit:4;stroke-dasharray:none;stroke-opacity:1"
           id="path15926"
           transform="translate(11.1982,152.86618)" />
        <path
           d="m 0,0 c 0,-4.696 -3.807,-8.504 -8.504,-8.504 -4.697,0 -8.504,3.808 -8.504,8.504 0,4.696 3.807,8.504 8.504,8.504 C -3.807,8.504 0,4.696 0,0 Z"
           style="display:inline;fill:none;stroke:#ff0000;stroke-width:0.99975;stroke-linecap:butt;stroke-linejoin:miter;stroke-miterlimit:4;stroke-dasharray:none;stroke-opacity:1"
           id="path15930"
           transform="translate(11.1982,195.98148)" />
        <path
           d="m 0,0 c 0,-4.696 -3.807,-8.504 -8.504,-8.504 -4.697,0 -8.504,3.808 -8.504,8.504 0,4.696 3.807,8.504 8.504,8.504 C -3.807,8.504 0,4.696 0,0 Z"
           style="display:inline;fill:none;stroke:#ff0000;stroke-width:0.99975;stroke-linecap:butt;stroke-linejoin:miter;stroke-miterlimit:4;stroke-dasharray:none;stroke-opacity:1"
           id="path15934"
           transform="translate(11.1982,239.19388)" />
        <path
           d="m 0,0 c 0,-4.696 -3.807,-8.504 -8.504,-8.504 -4.697,0 -8.504,3.808 -8.504,8.504 0,4.696 3.807,8.504 8.504,8.504 C -3.807,8.504 0,4.696 0,0 Z"
           style="display:inline;fill:none;stroke:#ff0000;stroke-width:0.99975;stroke-linecap:butt;stroke-linejoin:miter;stroke-miterlimit:4;stroke-dasharray:none;stroke-opacity:1"
           id="path15938"
           transform="translate(38.0517,3.6259973)" />
        <path
           d="m 0,0 c 0,-4.696 -3.807,-8.504 -8.504,-8.504 -4.697,0 -8.504,3.808 -8.504,8.504 0,4.696 3.807,8.504 8.504,8.504 C -3.807,8.504 0,4.696 0,0 Z"
           style="display:inline;fill:none;stroke:#ff0000;stroke-width:0.99975;stroke-linecap:butt;stroke-linejoin:miter;stroke-miterlimit:4;stroke-dasharray:none;stroke-opacity:1"
           id="path15942"
           transform="translate(38.0517,48.553668)" />
        <path
           d="m 0,0 c 0,-4.696 -3.807,-8.504 -8.504,-8.504 -4.697,0 -8.504,3.808 -8.504,8.504 0,4.696 3.807,8.504 8.504,8.504 C -3.807,8.504 0,4.696 0,0 Z"
           style="display:inline;fill:none;stroke:#ff0000;stroke-width:0.99975;stroke-linecap:butt;stroke-linejoin:miter;stroke-miterlimit:4;stroke-dasharray:none;stroke-opacity:1"
           id="path15946"
           transform="translate(38.038499,176.38618)" />
        <path
           d="m 0,0 c 0,-4.696 -3.807,-8.504 -8.504,-8.504 -4.697,0 -8.504,3.808 -8.504,8.504 0,4.696 3.807,8.504 8.504,8.504 C -3.807,8.504 0,4.696 0,0 Z"
           style="display:inline;fill:none;stroke:#ff0000;stroke-width:0.99975;stroke-linecap:butt;stroke-linejoin:miter;stroke-miterlimit:4;stroke-dasharray:none;stroke-opacity:1"
           id="path15950"
           transform="translate(38.038499,219.60058)" />
        <path
           d="m 0,0 c 0,-2.427 -1.967,-4.394 -4.394,-4.394 -2.426,0 -4.393,1.967 -4.393,4.394 0,2.427 1.967,4.394 4.393,4.394 C -1.967,4.394 0,2.427 0,0 Z"
           style="display:inline;fill:none;stroke:#ff0000;stroke-width:0.99975;stroke-linecap:butt;stroke-linejoin:miter;stroke-miterlimit:4;stroke-dasharray:none;stroke-opacity:1"
           id="path15954"
           transform="translate(2.3622047e-8,258.35788)" />
        <path
           d="m 0,0 c 0,-2.427 -1.967,-4.394 -4.394,-4.394 -2.426,0 -4.393,1.967 -4.393,4.394 0,2.427 1.967,4.394 4.393,4.394 C -1.967,4.394 0,2.427 0,0 Z"
           style="display:inline;fill:none;stroke:#ff0000;stroke-width:0.99975;stroke-linecap:butt;stroke-linejoin:miter;stroke-miterlimit:4;stroke-dasharray:none;stroke-opacity:1"
           id="path15958"
           transform="translate(26.717199,239.19388)" />
        <path
           d="m 0,0 c 0,-2.427 -1.967,-4.394 -4.394,-4.394 -2.426,0 -4.393,1.967 -4.393,4.394 0,2.427 1.967,4.394 4.393,4.394 C -1.967,4.394 0,2.427 0,0 Z"
           style="display:inline;fill:none;stroke:#ff0000;stroke-width:0.99975;stroke-linecap:butt;stroke-linejoin:miter;stroke-miterlimit:4;stroke-dasharray:none;stroke-opacity:1"
           id="path15962"
           transform="translate(2.3622047e-8,216.02538)" />
        <path
           d="m 0,0 c 0,-2.427 -1.967,-4.394 -4.394,-4.394 -2.426,0 -4.393,1.967 -4.393,4.394 0,2.427 1.967,4.394 4.393,4.394 C -1.967,4.394 0,2.427 0,0 Z"
           style="display:inline;fill:none;stroke:#ff0000;stroke-width:0.99975;stroke-linecap:butt;stroke-linejoin:miter;stroke-miterlimit:4;stroke-dasharray:none;stroke-opacity:1"
           id="path15966"
           transform="translate(26.717199,195.98148)" />
        <path
           d="m 0,0 c 0,-2.427 -1.967,-4.394 -4.394,-4.394 -2.426,0 -4.393,1.967 -4.393,4.394 0,2.427 1.967,4.394 4.393,4.394 C -1.967,4.394 0,2.427 0,0 Z"
           style="display:inline;fill:none;stroke:#ff0000;stroke-width:0.99975;stroke-linecap:butt;stroke-linejoin:miter;stroke-miterlimit:4;stroke-dasharray:none;stroke-opacity:1"
           id="path15970"
           transform="translate(2.3622047e-8,172.78267)" />
        <path
           d="m 0,0 c 0,-2.427 -1.967,-4.394 -4.394,-4.394 -2.426,0 -4.393,1.967 -4.393,4.394 0,2.427 1.967,4.394 4.393,4.394 C -1.967,4.394 0,2.427 0,0 Z"
           style="display:inline;fill:none;stroke:#ff0000;stroke-width:0.99975;stroke-linecap:butt;stroke-linejoin:miter;stroke-miterlimit:4;stroke-dasharray:none;stroke-opacity:1"
           id="path15974"
           transform="translate(2.3622047e-8,129.61618)" />
        <path
           d="m 0,0 c 0,-2.427 -1.967,-4.394 -4.394,-4.394 -2.426,0 -4.393,1.967 -4.393,4.394 0,2.427 1.967,4.394 4.393,4.394 C -1.967,4.394 0,2.427 0,0 Z"
           style="display:inline;fill:none;stroke:#ff0000;stroke-width:0.99975;stroke-linecap:butt;stroke-linejoin:miter;stroke-miterlimit:4;stroke-dasharray:none;stroke-opacity:1"
           id="path15978"
           transform="translate(2.3622047e-8,86.365677)" />
        <path
           d="m 0,0 c 0,-2.427 -1.967,-4.394 -4.394,-4.394 -2.426,0 -4.393,1.967 -4.393,4.394 0,2.427 1.967,4.394 4.393,4.394 C -1.967,4.394 0,2.427 0,0 Z"
           style="display:inline;fill:none;stroke:#ff0000;stroke-width:0.99975;stroke-linecap:butt;stroke-linejoin:miter;stroke-miterlimit:4;stroke-dasharray:none;stroke-opacity:1"
           id="path15982"
           transform="translate(26.769499,70.032679)" />
        <path
           d="m 0,0 c 0,-2.427 -1.967,-4.393 -4.394,-4.393 -2.426,0 -4.393,1.966 -4.393,4.393 0,2.427 1.967,4.393 4.393,4.393 C -1.967,4.393 0,2.427 0,0 Z"
           style="display:inline;fill:none;stroke:#ff0000;stroke-width:0.99975;stroke-linecap:butt;stroke-linejoin:miter;stroke-miterlimit:4;stroke-dasharray:none;stroke-opacity:1"
           id="path15986"
           transform="translate(26.769499,23.111283)" />
        <path
           d="m 0,0 c 0,-2.426 -1.967,-4.394 -4.394,-4.394 -2.426,0 -4.393,1.968 -4.393,4.394 0,2.427 1.967,4.394 4.393,4.394 C -1.967,4.394 0,2.427 0,0 Z"
           style="display:inline;fill:none;stroke:#ff0000;stroke-width:0.99975;stroke-linecap:butt;stroke-linejoin:miter;stroke-miterlimit:4;stroke-dasharray:none;stroke-opacity:1"
           id="path15990"
           transform="translate(2.3622047e-8,43.167986)" />
        <path
           d="m 0,0 c 0,-2.425 -1.967,-4.393 -4.394,-4.393 -2.426,0 -4.393,1.968 -4.393,4.393 0,2.428 1.967,4.395 4.393,4.395 C -1.967,4.395 0,2.428 0,0 Z"
           style="fill:none;stroke:#ff0000;stroke-width:0.99975;stroke-linecap:butt;stroke-linejoin:miter;stroke-miterlimit:4;stroke-dasharray:none;stroke-opacity:1"
           id="path15994" />
      </g>
    </g>
  </g>
</svg>
